<svg xmlns="http://www.w3.org/2000/svg" width="40" height="40" viewBox="0 0 40 40">
  <g id="icon_twitter-light" transform="translate(1089 110)">
    <rect id="長方形_23079" data-name="長方形 23079" width="40" height="40" transform="translate(-1089 -110)" fill="none"/>
    <path id="Icon_awesome-twitter" data-name="Icon awesome-twitter" d="M29.159,9.959c.021.289.021.577.021.866,0,8.806-6.7,18.952-18.952,18.952A18.823,18.823,0,0,1,0,26.787a13.779,13.779,0,0,0,1.609.082,13.34,13.34,0,0,0,8.269-2.846A6.673,6.673,0,0,1,3.65,19.4a8.4,8.4,0,0,0,1.258.1,7.045,7.045,0,0,0,1.753-.227A6.662,6.662,0,0,1,1.32,12.743v-.082a6.708,6.708,0,0,0,3.011.845A6.671,6.671,0,0,1,2.268,4.6,18.933,18.933,0,0,0,16,11.568a7.519,7.519,0,0,1-.165-1.526A6.667,6.667,0,0,1,27.365,5.484a13.114,13.114,0,0,0,4.227-1.609,6.643,6.643,0,0,1-2.928,3.671A13.353,13.353,0,0,0,32.5,6.515a14.318,14.318,0,0,1-3.341,3.444Z" transform="translate(-1084 -105.881)" fill="#fff"/>
  </g>
</svg>
