<svg xmlns="http://www.w3.org/2000/svg" width="40" height="40" viewBox="0 0 40 40">
  <g id="icon_youtube-light" transform="translate(962 110)">
    <rect id="長方形_23082" data-name="長方形 23082" width="40" height="40" transform="translate(-962 -110)" fill="none"/>
    <path id="Icon_awesome-youtube" data-name="Icon awesome-youtube" d="M35.319,8.351a4.4,4.4,0,0,0-3.094-3.114C29.495,4.5,18.55,4.5,18.55,4.5s-10.945,0-13.674.736A4.4,4.4,0,0,0,1.781,8.351,46.134,46.134,0,0,0,1.05,16.83a46.134,46.134,0,0,0,.731,8.479,4.332,4.332,0,0,0,3.094,3.065c2.73.736,13.674.736,13.674.736s10.945,0,13.674-.736a4.332,4.332,0,0,0,3.094-3.065,46.134,46.134,0,0,0,.731-8.479,46.134,46.134,0,0,0-.731-8.479ZM14.97,22.034V11.625l9.148,5.2-9.148,5.2Z" transform="translate(-959.717 -107)" fill="#fff"/>
  </g>
</svg>
